{
  "source": "C:\\Users\\mbnyau\\Desktop\\stuff\\MIUN\\quantitative_research\\video_compression\\videos\\Jockey_1920x1080_120fps_420_8bit_YUV.mp4",
  "output": "C:\\Users\\mbnyau\\Desktop\\stuff\\MIUN\\quantitative_research\\video_compression\\compressed_videos\\Jockey_1920x1080_120fps_420_8bit_YUV_h264.mp4",
  "codec": "h264",
  "ok": "Input #0, mov,mp4,m4a,3gp,3g2,mj2, from 'C:\\Users\\mbnyau\\Desktop\\stuff\\MIUN\\quantitative_research\\video_compression\\videos\\Jockey_1920x1080_120fps_420_8bit_YUV.mp4':\n  Metadata:\n    major_brand     : isom\n    minor_version   : 512\n    compatible_brands: isomiso2mp41\n    encoder         : Lavf58.76.100\n  Duration: 00:00:20.00, start: 0.000000, bitrate: 8918 kb/s\n  Stream #0:0[0x1](und): Video: mpeg4 (Simple Profile) (mp4v / 0x7634706D), yuv420p, 1920x1080 [SAR 1:1 DAR 16:9], 8916 kb/s, 30 fps, 30 tbr, 15360 tbn (default)\n    Metadata:\n      handler_name    : VideoHandler\n      vendor_id       : [0][0][0][0]\n[out#0/mp4 @ 00000282e7b51e40] Codec AVOption b:a (set bitrate (in bits/s)) has not been used for any stream. The most likely reason is either wrong type (e.g. a video option with no video streams) or that it is a private option of some decoder which was not actually used for any stream.\nStream mapping:\n  Stream #0:0 -> #0:0 (mpeg4 (native) -> h264 (libx264))\nPress [q] to stop, [?] for help\n[libx264 @ 00000282e7b503c0] using SAR=1/1\n[libx264 @ 00000282e7b503c0] using cpu capabilities: MMX2 SSE2Fast SSSE3 SSE4.2 AVX FMA3 BMI2 AVX2\n[libx264 @ 00000282e7b503c0] profile High, level 5.0, 4:2:0, 8-bit\n[libx264 @ 00000282e7b503c0] 264 - core 165 r3222 b35605a - H.264/MPEG-4 AVC codec - Copyleft 2003-2025 - http://www.videolan.org/x264.html - options: cabac=1 ref=5 deblock=1:0:0 analyse=0x3:0x113 me=hex subme=8 psy=1 psy_rd=1.00:0.00 mixed_ref=1 me_range=16 chroma_me=1 trellis=2 8x8dct=1 cqm=0 deadzone=21,11 fast_pskip=1 chroma_qp_offset=-2 threads=18 lookahead_threads=3 sliced_threads=0 nr=0 decimate=1 interlaced=0 bluray_compat=0 constrained_intra=0 bframes=3 b_pyramid=2 b_adapt=1 b_bias=0 direct=3 weightb=1 open_gop=0 weightp=2 keyint=250 keyint_min=25 scenecut=40 intra_refresh=0 rc_lookahead=50 rc=cbr mbtree=1 bitrate=2000 ratetol=1.0 qcomp=0.60 qpmin=0 qpmax=69 qpstep=4 vbv_maxrate=2000 vbv_bufsize=2000 nal_hrd=none filler=0 ip_ratio=1.40 aq=1:1.00\nOutput #0, mp4, to 'C:\\Users\\mbnyau\\Desktop\\stuff\\MIUN\\quantitative_research\\video_compression\\compressed_videos\\Jockey_1920x1080_120fps_420_8bit_YUV_h264.mp4':\n  Metadata:\n    major_brand     : isom\n    minor_version   : 512\n    compatible_brands: isomiso2mp41\n    encoder         : Lavf62.3.100\n  Stream #0:0(und): Video: h264 (avc1 / 0x31637661), yuv420p(tv, progressive), 1920x1080 [SAR 1:1 DAR 16:9], q=2-31, 2000 kb/s, 30 fps, 15360 tbn (default)\n    Metadata:\n      encoder         : Lavc62.11.100 libx264\n      handler_name    : VideoHandler\n      vendor_id       : [0][0][0][0]\n    Side data:\n      cpb: bitrate max/min/avg: 2000000/0/2000000 buffer size: 2000000 vbv_delay: N/A\nframe=    0 fps=0.0 q=0.0 size=       0KiB time=N/A bitrate=N/A speed=N/A elapsed=0:00:00.51    \nframe=    0 fps=0.0 q=0.0 size=       0KiB time=N/A bitrate=N/A speed=N/A elapsed=0:00:01.04    \nframe=    0 fps=0.0 q=0.0 size=       0KiB time=N/A bitrate=N/A speed=N/A elapsed=0:00:01.60    \nframe=   23 fps= 11 q=32.0 size=       0KiB time=00:00:00.63 bitrate=   0.6kbits/s speed=0.291x elapsed=0:00:02.17    \nframe=   40 fps= 15 q=34.0 size=     256KiB time=00:00:01.23 bitrate=1700.7kbits/s speed=0.453x elapsed=0:00:02.72    \nframe=   63 fps= 19 q=33.0 size=     256KiB time=00:00:02.03 bitrate=1031.6kbits/s speed=0.622x elapsed=0:00:03.26    \nframe=   83 fps= 22 q=34.0 size=     512KiB time=00:00:02.70 bitrate=1553.6kbits/s speed=0.71x elapsed=0:00:03.80    \nframe=  107 fps= 25 q=34.0 size=     768KiB time=00:00:03.40 bitrate=1850.5kbits/s speed=0.78x elapsed=0:00:04.35    \nframe=  134 fps= 26 q=34.0 size=    1024KiB time=00:00:04.23 bitrate=1981.7kbits/s speed=0.828x elapsed=0:00:05.11    \nframe=  152 fps= 26 q=34.0 size=    1024KiB time=00:00:05.00 bitrate=1677.8kbits/s speed=0.867x elapsed=0:00:05.76    \nframe=  164 fps= 26 q=35.0 size=    1280KiB time=00:00:05.40 bitrate=1941.9kbits/s speed=0.859x elapsed=0:00:06.28    \nframe=  186 fps= 27 q=35.0 size=    1280KiB time=00:00:06.06 bitrate=1728.5kbits/s speed=0.884x elapsed=0:00:06.86    \nframe=  203 fps= 27 q=35.0 size=    1536KiB time=00:00:06.70 bitrate=1878.1kbits/s speed=0.902x elapsed=0:00:07.42    \nframe=  225 fps= 28 q=35.0 size=    1792KiB time=00:00:07.40 bitrate=1983.8kbits/s speed=0.93x elapsed=0:00:07.95    \nframe=  244 fps= 29 q=35.0 size=    1792KiB time=00:00:08.06 bitrate=1819.9kbits/s speed=0.948x elapsed=0:00:08.51    \nframe=  263 fps= 29 q=36.0 size=    2048KiB time=00:00:08.70 bitrate=1928.5kbits/s speed=0.963x elapsed=0:00:09.03    \nframe=  284 fps= 30 q=37.0 size=    2304KiB time=00:00:09.40 bitrate=2008.0kbits/s speed=0.983x elapsed=0:00:09.55    \nframe=  299 fps= 30 q=38.0 size=    2304KiB time=00:00:09.90 bitrate=1906.5kbits/s speed=0.982x elapsed=0:00:10.08    \nframe=  316 fps= 30 q=39.0 size=    2560KiB time=00:00:10.43 bitrate=2010.1kbits/s speed=0.982x elapsed=0:00:10.62    \nframe=  332 fps= 30 q=37.0 size=    2560KiB time=00:00:11.00 bitrate=1906.5kbits/s speed=0.985x elapsed=0:00:11.16    \nframe=  350 fps= 30 q=38.0 size=    2816KiB time=00:00:11.60 bitrate=1988.7kbits/s speed=0.992x elapsed=0:00:11.69    \nframe=  373 fps= 31 q=36.0 size=    2816KiB time=00:00:12.33 bitrate=1870.5kbits/s speed=1.01x elapsed=0:00:12.21    \nframe=  393 fps= 31 q=35.0 size=    3072KiB time=00:00:13.03 bitrate=1930.9kbits/s speed=1.02x elapsed=0:00:12.76    \nframe=  416 fps= 31 q=32.0 size=    3328KiB time=00:00:13.80 bitrate=1975.6kbits/s speed=1.04x elapsed=0:00:13.28    \nframe=  434 fps= 31 q=33.0 size=    3328KiB time=00:00:14.40 bitrate=1893.3kbits/s speed=1.04x elapsed=0:00:13.82    \nframe=  449 fps= 31 q=34.0 size=    3328KiB time=00:00:14.90 bitrate=1829.8kbits/s speed=1.04x elapsed=0:00:14.34    \nframe=  474 fps= 32 q=32.0 size=    3584KiB time=00:00:15.73 bitrate=1866.1kbits/s speed=1.06x elapsed=0:00:14.85    \nframe=  494 fps= 32 q=34.0 size=    3840KiB time=00:00:16.40 bitrate=1918.2kbits/s speed=1.07x elapsed=0:00:15.38    \nframe=  514 fps= 32 q=32.0 size=    3840KiB time=00:00:17.06 bitrate=1843.2kbits/s speed=1.07x elapsed=0:00:15.91    \nframe=  538 fps= 33 q=33.0 size=    4096KiB time=00:00:17.83 bitrate=1881.6kbits/s speed=1.09x elapsed=0:00:16.43    \nframe=  559 fps= 33 q=33.0 size=    4096KiB time=00:00:18.53 bitrate=1810.5kbits/s speed=1.09x elapsed=0:00:16.96    \nframe=  581 fps= 33 q=31.0 size=    4352KiB time=00:00:19.30 bitrate=1847.3kbits/s speed= 1.1x elapsed=0:00:17.49    \nframe=  598 fps= 33 q=-1.0 size=    4608KiB time=00:00:19.86 bitrate=1900.1kbits/s speed= 1.1x elapsed=0:00:18.02    \n[mp4 @ 00000282e7b4e340] Starting second pass: moving the moov atom to the beginning of the file\n[out#0/mp4 @ 00000282e7b51e40] video:4657KiB audio:0KiB subtitle:0KiB other streams:0KiB global headers:0KiB muxing overhead: 0.092678%\nframe=  600 fps= 33 q=-1.0 Lsize=    4662KiB time=00:00:19.93 bitrate=1915.8kbits/s speed= 1.1x elapsed=0:00:18.09    \n[libx264 @ 00000282e7b503c0] frame I:5     Avg QP:26.90  size: 32491\n[libx264 @ 00000282e7b503c0] frame P:545   Avg QP:29.23  size:  8119\n[libx264 @ 00000282e7b503c0] frame B:50    Avg QP:32.00  size:  3621\n[libx264 @ 00000282e7b503c0] consecutive B-frames: 84.2% 13.3%  2.5%  0.0%\n[libx264 @ 00000282e7b503c0] mb I  I16..4: 36.6% 62.6%  0.8%\n[libx264 @ 00000282e7b503c0] mb P  I16..4:  7.1%  5.1%  0.0%  P16..4: 24.1%  1.7%  2.0%  0.0%  0.0%    skip:60.0%\n[libx264 @ 00000282e7b503c0] mb B  I16..4:  1.1%  1.0%  0.0%  B16..8: 29.9%  0.9%  0.0%  direct: 0.3%  skip:66.7%  L0:49.2% L1:50.3% BI: 0.6%\n[libx264 @ 00000282e7b503c0] 8x8 transform intra:43.1% inter:94.4%\n[libx264 @ 00000282e7b503c0] direct mvs  spatial:96.0% temporal:4.0%\n[libx264 @ 00000282e7b503c0] coded y,uvDC,uvAC intra: 17.0% 39.9% 1.4% inter: 2.1% 5.1% 0.0%\n[libx264 @ 00000282e7b503c0] i16 v,h,dc,p: 20% 46% 16% 18%\n[libx264 @ 00000282e7b503c0] i8 v,h,dc,ddl,ddr,vr,hd,vl,hu: 14% 24% 46%  3%  3%  3%  3%  2%  3%\n[libx264 @ 00000282e7b503c0] i4 v,h,dc,ddl,ddr,vr,hd,vl,hu: 24% 18% 24%  5%  8%  8%  6%  4%  3%\n[libx264 @ 00000282e7b503c0] i8c dc,h,v,p: 59% 27% 11%  3%\n[libx264 @ 00000282e7b503c0] Weighted P-Frames: Y:0.0% UV:0.0%\n[libx264 @ 00000282e7b503c0] ref P L0: 69.9% 16.8%  7.4%  2.5%  1.8%  1.6%\n[libx264 @ 00000282e7b503c0] ref B L0: 90.8%  5.1%  3.8%  0.3%\n[libx264 @ 00000282e7b503c0] kb/s:1907.37\n",
  "seconds": 19.00561285018921,
  "probe_out": {}
}